<svg xmlns="http://www.w3.org/2000/svg" width="60" height="56" viewBox="0 0 60 56"><defs><style>.a{fill:#5976F0;}</style></defs><path class="a" d="M49.951,0H9.25A9.236,9.236,0,0,0,0,9.2V38.173a9.236,9.236,0,0,0,9.25,9.2H31.219A2.314,2.314,0,0,0,33.3,46.087a2.289,2.289,0,0,0-.248-2.421L27,35.891,43.764,22.756,52.8,30.244c3.242,2.537,6.35.6,6.4-1.716V9.2A9.236,9.236,0,0,0,49.951,0ZM45.479,17.63a3.158,3.158,0,0,0-3.59.056L24.081,32.139l-6.064-7.795a2.316,2.316,0,0,0-1.829-.893h0a2.316,2.316,0,0,0-1.83.9L9.266,30.93a2.292,2.292,0,0,0,.423,3.226,2.321,2.321,0,0,0,3.243-.421l3.262-4.218L26.506,42.774H9.25a4.618,4.618,0,0,1-4.625-4.6V9.2A4.618,4.618,0,0,1,9.25,4.6h40.7a4.618,4.618,0,0,1,4.625,4.6l-.02,16.25ZM60,45.074a2.306,2.306,0,0,1-2.313,2.3H51.328V53.7a2.313,2.313,0,0,1-4.625,0V47.374H40.343a2.3,2.3,0,1,1,0-4.6H46.7V36.448a2.313,2.313,0,0,1,4.625,0v6.326h6.359A2.306,2.306,0,0,1,60,45.074Zm0,0"/></svg>