<svg xmlns="http://www.w3.org/2000/svg" width="28.284" height="28.284" viewBox="0 0 28.284 28.284"><defs><style>.a{fill:none;}.b{fill:#9c9ca6;stroke:#9c9ca6;stroke-width:0.3px;}</style></defs><g transform="translate(14.142) rotate(45)"><path class="a" d="M0,0H20V20H0Z"/><path class="b" d="M16.5,5.091V14.5c0,1.808-1.79,3.273-4,3.273s-4-1.465-4-3.273V4.273A2.308,2.308,0,0,1,11,2.227a2.308,2.308,0,0,1,2.5,2.045v8.591a.926.926,0,0,1-1,.818.926.926,0,0,1-1-.818V5.091H10v7.773a2.308,2.308,0,0,0,2.5,2.045A2.308,2.308,0,0,0,15,12.864V4.273C15,2.465,13.21,1,11,1S7,2.465,7,4.273V14.5C7,16.987,9.46,19,12.5,19S18,16.987,18,14.5V5.091Z" transform="translate(-2.154)"/></g></svg>