<svg xmlns="http://www.w3.org/2000/svg" width="46.075" height="46.799" viewBox="0 0 46.075 46.799"><defs><style>.a{fill:#5976F0;}</style></defs><g transform="translate(0 39.882)"><g transform="translate(0 0)"><path class="a" d="M25.313,27.916H6.394A3.255,3.255,0,0,1,3,24.83v-.743A3.255,3.255,0,0,1,6.394,21H25.313a3.255,3.255,0,0,1,3.394,3.087v.743A3.255,3.255,0,0,1,25.313,27.916Z" transform="translate(-3 -21)"/></g></g><g transform="translate(3.08 0)"><g transform="translate(0 0)"><g transform="translate(5.358 5.358)"><g transform="translate(0 0)"><path class="a" d="M15.213,23.243a1.761,1.761,0,0,1-1.3-.511L6.8,15.618c-1.245-1.245.124-3.4.572-4.1a27.829,27.829,0,0,1,3.691-4.439,27.807,27.807,0,0,1,4.443-3.7c.709-.452,2.864-1.82,4.109-.576L26.73,9.916c1.247,1.247-.126,3.4-.576,4.111a27.857,27.857,0,0,1-3.7,4.445,27.78,27.78,0,0,1-4.437,3.689,5.862,5.862,0,0,1-2.8,1.082Z" transform="translate(-6.291 -2.291)"/></g></g><g transform="translate(0 15.21)"><path class="a" d="M15.32,24.006a3.372,3.372,0,0,1-2.389-.989L4.989,15.075a3.376,3.376,0,0,1,0-4.777L6.579,8.71a3.381,3.381,0,0,1,4.777,0L19.3,16.652a3.381,3.381,0,0,1,0,4.777L17.71,23.017a3.376,3.376,0,0,1-2.389.989Z" transform="translate(-4 -7.722)"/></g><g transform="translate(15.211)"><path class="a" d="M23.042,16.282a3.372,3.372,0,0,1-2.389-.989L12.71,7.351a3.379,3.379,0,0,1,0-4.774L14.3.988a3.381,3.381,0,0,1,4.777,0L27.017,8.93a3.381,3.381,0,0,1,0,4.777L25.429,15.3A3.364,3.364,0,0,1,23.042,16.282Zm3.175-3.374h.023Z" transform="translate(-11.722 -0.001)"/></g></g><g transform="translate(17.583 17.579)"><g transform="translate(0 0)"><path class="a" d="M33.873,34.187c-1.364,0-2.833-.781-4.394-2.342S18.738,20.181,13.04,13.463a1.128,1.128,0,0,1,.131-1.593c.475-.405,2.292-2.224,2.7-2.7a1.129,1.129,0,0,1,1.6-.131C24.209,14.762,34.3,23.93,35.848,25.48c1.686,1.686,2.466,3.3,2.317,4.786a4.132,4.132,0,0,1-1.349,2.548,4.134,4.134,0,0,1-2.944,1.373Z" transform="translate(-12.771 -8.77)"/></g></g></g></svg>