<svg xmlns="http://www.w3.org/2000/svg" width="282" height="60" viewBox="0 0 282 60"><defs><style>.a,.b,.c,.d,.e,.f,.g,.h,.i{fill:#5976f0;}.a{opacity:0.09;}.b{opacity:0.06;}.c{opacity:0.08;}.d{opacity:0.05;}.e{opacity:0.03;}.f{opacity:0.02;}.g{opacity:0.07;}.h{opacity:0.01;}.i{opacity:0.04;}</style></defs><g transform="translate(-1578 -144)"><path class="a" d="M0,0H6A12,12,0,0,1,18,12V47a4,4,0,0,1-4,4H4a4,4,0,0,1-4-4V0A0,0,0,0,1,0,0Z" transform="translate(1842 144)"/><path class="a" d="M0,0H18a0,0,0,0,1,0,0V47a4,4,0,0,1-4,4H4a4,4,0,0,1-4-4V0A0,0,0,0,1,0,0Z" transform="translate(1794 144)"/><path class="a" d="M0,0H18a0,0,0,0,1,0,0V51a4,4,0,0,1-4,4H4a4,4,0,0,1-4-4V0A0,0,0,0,1,0,0Z" transform="translate(1818 144)"/><path class="b" d="M0,0H18a0,0,0,0,1,0,0V39a4,4,0,0,1-4,4H4a4,4,0,0,1-4-4V0A0,0,0,0,1,0,0Z" transform="translate(1722 144)"/><path class="c" d="M0,0H18a0,0,0,0,1,0,0V51a4,4,0,0,1-4,4H4a4,4,0,0,1-4-4V0A0,0,0,0,1,0,0Z" transform="translate(1770 144)"/><path class="d" d="M0,0H18a0,0,0,0,1,0,0V48a4,4,0,0,1-4,4H4a4,4,0,0,1-4-4V0A0,0,0,0,1,0,0Z" transform="translate(1698 144)"/><path class="e" d="M0,0H18a0,0,0,0,1,0,0V52a4,4,0,0,1-4,4H4a4,4,0,0,1-4-4V0A0,0,0,0,1,0,0Z" transform="translate(1650 144)"/><path class="e" d="M0,0H18a0,0,0,0,1,0,0V39a4,4,0,0,1-4,4H4a4,4,0,0,1-4-4V0A0,0,0,0,1,0,0Z" transform="translate(1626 144)"/><path class="f" d="M0,0H18a0,0,0,0,1,0,0V42a4,4,0,0,1-4,4H4a4,4,0,0,1-4-4V0A0,0,0,0,1,0,0Z" transform="translate(1602 144)"/><path class="g" d="M0,0H18a0,0,0,0,1,0,0V42a4,4,0,0,1-4,4H4a4,4,0,0,1-4-4V0A0,0,0,0,1,0,0Z" transform="translate(1746 144)"/><path class="h" d="M0,0H18a0,0,0,0,1,0,0V47a4,4,0,0,1-4,4H4a4,4,0,0,1-4-4V0A0,0,0,0,1,0,0Z" transform="translate(1578 144)"/><path class="i" d="M0,0H18a0,0,0,0,1,0,0V56a4,4,0,0,1-4,4H4a4,4,0,0,1-4-4V0A0,0,0,0,1,0,0Z" transform="translate(1674 144)"/></g></svg>