<svg xmlns="http://www.w3.org/2000/svg" width="24" height="28" viewBox="0 0 24 28"><defs><style>.a{fill:#ff4671;}</style></defs><path class="a" d="M6.714,27.889A3.291,3.291,0,0,0,10.143,31H23.857a3.291,3.291,0,0,0,3.429-3.111V10.933c0-1.711-.21-1.711-2.1-1.711H8.81c-1.886,0-2.1,0-2.1,1.711ZM27.286,4.556H23l-1.217-1.1A1.823,1.823,0,0,0,20.583,3H13.417a1.823,1.823,0,0,0-1.2.451L11,4.556H6.714A1.646,1.646,0,0,0,5,6.111,1.646,1.646,0,0,0,6.714,7.667H27.286A1.646,1.646,0,0,0,29,6.111,1.646,1.646,0,0,0,27.286,4.556Z" transform="translate(-5 -3)"/></svg>