<svg xmlns="http://www.w3.org/2000/svg" xmlns:xlink="http://www.w3.org/1999/xlink" width="370" height="344" viewBox="0 0 370 344">
  <defs>
    <clipPath id="clip-path">
      <rect width="370" height="344" fill="none"/>
    </clipPath>
  </defs>
  <g id="Repeat_Grid_5" data-name="Repeat Grid 5" opacity="0.3" clip-path="url(#clip-path)">
    <g transform="translate(24656 22764)">
      <circle id="Ellipse_285" data-name="Ellipse 285" cx="3" cy="3" r="3" transform="translate(-24656 -22764)" fill="#28A5A0"/>
    </g>
    <g transform="translate(24689 22764)">
      <circle id="Ellipse_285-2" data-name="Ellipse 285" cx="3" cy="3" r="3" transform="translate(-24656 -22764)" fill="#28A5A0"/>
    </g>
    <g transform="translate(24722 22764)">
      <circle id="Ellipse_285-3" data-name="Ellipse 285" cx="3" cy="3" r="3" transform="translate(-24656 -22764)" fill="#28A5A0"/>
    </g>
    <g transform="translate(24755 22764)">
      <circle id="Ellipse_285-4" data-name="Ellipse 285" cx="3" cy="3" r="3" transform="translate(-24656 -22764)" fill="#28A5A0"/>
    </g>
    <g transform="translate(24788 22764)">
      <circle id="Ellipse_285-5" data-name="Ellipse 285" cx="3" cy="3" r="3" transform="translate(-24656 -22764)" fill="#28A5A0"/>
    </g>
    <g transform="translate(24821 22764)">
      <circle id="Ellipse_285-6" data-name="Ellipse 285" cx="3" cy="3" r="3" transform="translate(-24656 -22764)" fill="#28A5A0"/>
    </g>
    <g transform="translate(24854 22764)">
      <circle id="Ellipse_285-7" data-name="Ellipse 285" cx="3" cy="3" r="3" transform="translate(-24656 -22764)" fill="#28A5A0"/>
    </g>
    <g transform="translate(24887 22764)">
      <circle id="Ellipse_285-8" data-name="Ellipse 285" cx="3" cy="3" r="3" transform="translate(-24656 -22764)" fill="#28A5A0"/>
    </g>
    <g transform="translate(24920 22764)">
      <circle id="Ellipse_285-9" data-name="Ellipse 285" cx="3" cy="3" r="3" transform="translate(-24656 -22764)" fill="#28A5A0"/>
    </g>
    <g transform="translate(24953 22764)">
      <circle id="Ellipse_285-10" data-name="Ellipse 285" cx="3" cy="3" r="3" transform="translate(-24656 -22764)" fill="#28A5A0"/>
    </g>
    <g transform="translate(24986 22764)">
      <circle id="Ellipse_285-11" data-name="Ellipse 285" cx="3" cy="3" r="3" transform="translate(-24656 -22764)" fill="#28A5A0"/>
    </g>
    <g transform="translate(25019 22764)">
      <circle id="Ellipse_285-12" data-name="Ellipse 285" cx="3" cy="3" r="3" transform="translate(-24656 -22764)" fill="#28A5A0"/>
    </g>
    <g transform="translate(24656 22797)">
      <circle id="Ellipse_285-13" data-name="Ellipse 285" cx="3" cy="3" r="3" transform="translate(-24656 -22764)" fill="#28A5A0"/>
    </g>
    <g transform="translate(24689 22797)">
      <circle id="Ellipse_285-14" data-name="Ellipse 285" cx="3" cy="3" r="3" transform="translate(-24656 -22764)" fill="#28A5A0"/>
    </g>
    <g transform="translate(24722 22797)">
      <circle id="Ellipse_285-15" data-name="Ellipse 285" cx="3" cy="3" r="3" transform="translate(-24656 -22764)" fill="#28A5A0"/>
    </g>
    <g transform="translate(24755 22797)">
      <circle id="Ellipse_285-16" data-name="Ellipse 285" cx="3" cy="3" r="3" transform="translate(-24656 -22764)" fill="#28A5A0"/>
    </g>
    <g transform="translate(24788 22797)">
      <circle id="Ellipse_285-17" data-name="Ellipse 285" cx="3" cy="3" r="3" transform="translate(-24656 -22764)" fill="#28A5A0"/>
    </g>
    <g transform="translate(24821 22797)">
      <circle id="Ellipse_285-18" data-name="Ellipse 285" cx="3" cy="3" r="3" transform="translate(-24656 -22764)" fill="#28A5A0"/>
    </g>
    <g transform="translate(24854 22797)">
      <circle id="Ellipse_285-19" data-name="Ellipse 285" cx="3" cy="3" r="3" transform="translate(-24656 -22764)" fill="#28A5A0"/>
    </g>
    <g transform="translate(24887 22797)">
      <circle id="Ellipse_285-20" data-name="Ellipse 285" cx="3" cy="3" r="3" transform="translate(-24656 -22764)" fill="#28A5A0"/>
    </g>
    <g transform="translate(24920 22797)">
      <circle id="Ellipse_285-21" data-name="Ellipse 285" cx="3" cy="3" r="3" transform="translate(-24656 -22764)" fill="#28A5A0"/>
    </g>
    <g transform="translate(24953 22797)">
      <circle id="Ellipse_285-22" data-name="Ellipse 285" cx="3" cy="3" r="3" transform="translate(-24656 -22764)" fill="#28A5A0"/>
    </g>
    <g transform="translate(24986 22797)">
      <circle id="Ellipse_285-23" data-name="Ellipse 285" cx="3" cy="3" r="3" transform="translate(-24656 -22764)" fill="#28A5A0"/>
    </g>
    <g transform="translate(25019 22797)">
      <circle id="Ellipse_285-24" data-name="Ellipse 285" cx="3" cy="3" r="3" transform="translate(-24656 -22764)" fill="#28A5A0"/>
    </g>
    <g transform="translate(24656 22830)">
      <circle id="Ellipse_285-25" data-name="Ellipse 285" cx="3" cy="3" r="3" transform="translate(-24656 -22764)" fill="#28A5A0"/>
    </g>
    <g transform="translate(24689 22830)">
      <circle id="Ellipse_285-26" data-name="Ellipse 285" cx="3" cy="3" r="3" transform="translate(-24656 -22764)" fill="#28A5A0"/>
    </g>
    <g transform="translate(24722 22830)">
      <circle id="Ellipse_285-27" data-name="Ellipse 285" cx="3" cy="3" r="3" transform="translate(-24656 -22764)" fill="#28A5A0"/>
    </g>
    <g transform="translate(24755 22830)">
      <circle id="Ellipse_285-28" data-name="Ellipse 285" cx="3" cy="3" r="3" transform="translate(-24656 -22764)" fill="#28A5A0"/>
    </g>
    <g transform="translate(24788 22830)">
      <circle id="Ellipse_285-29" data-name="Ellipse 285" cx="3" cy="3" r="3" transform="translate(-24656 -22764)" fill="#28A5A0"/>
    </g>
    <g transform="translate(24821 22830)">
      <circle id="Ellipse_285-30" data-name="Ellipse 285" cx="3" cy="3" r="3" transform="translate(-24656 -22764)" fill="#28A5A0"/>
    </g>
    <g transform="translate(24854 22830)">
      <circle id="Ellipse_285-31" data-name="Ellipse 285" cx="3" cy="3" r="3" transform="translate(-24656 -22764)" fill="#28A5A0"/>
    </g>
    <g transform="translate(24887 22830)">
      <circle id="Ellipse_285-32" data-name="Ellipse 285" cx="3" cy="3" r="3" transform="translate(-24656 -22764)" fill="#28A5A0"/>
    </g>
    <g transform="translate(24920 22830)">
      <circle id="Ellipse_285-33" data-name="Ellipse 285" cx="3" cy="3" r="3" transform="translate(-24656 -22764)" fill="#28A5A0"/>
    </g>
    <g transform="translate(24953 22830)">
      <circle id="Ellipse_285-34" data-name="Ellipse 285" cx="3" cy="3" r="3" transform="translate(-24656 -22764)" fill="#28A5A0"/>
    </g>
    <g transform="translate(24986 22830)">
      <circle id="Ellipse_285-35" data-name="Ellipse 285" cx="3" cy="3" r="3" transform="translate(-24656 -22764)" fill="#28A5A0"/>
    </g>
    <g transform="translate(25019 22830)">
      <circle id="Ellipse_285-36" data-name="Ellipse 285" cx="3" cy="3" r="3" transform="translate(-24656 -22764)" fill="#28A5A0"/>
    </g>
    <g transform="translate(24656 22863)">
      <circle id="Ellipse_285-37" data-name="Ellipse 285" cx="3" cy="3" r="3" transform="translate(-24656 -22764)" fill="#28A5A0"/>
    </g>
    <g transform="translate(24689 22863)">
      <circle id="Ellipse_285-38" data-name="Ellipse 285" cx="3" cy="3" r="3" transform="translate(-24656 -22764)" fill="#28A5A0"/>
    </g>
    <g transform="translate(24722 22863)">
      <circle id="Ellipse_285-39" data-name="Ellipse 285" cx="3" cy="3" r="3" transform="translate(-24656 -22764)" fill="#28A5A0"/>
    </g>
    <g transform="translate(24755 22863)">
      <circle id="Ellipse_285-40" data-name="Ellipse 285" cx="3" cy="3" r="3" transform="translate(-24656 -22764)" fill="#28A5A0"/>
    </g>
    <g transform="translate(24788 22863)">
      <circle id="Ellipse_285-41" data-name="Ellipse 285" cx="3" cy="3" r="3" transform="translate(-24656 -22764)" fill="#28A5A0"/>
    </g>
    <g transform="translate(24821 22863)">
      <circle id="Ellipse_285-42" data-name="Ellipse 285" cx="3" cy="3" r="3" transform="translate(-24656 -22764)" fill="#28A5A0"/>
    </g>
    <g transform="translate(24854 22863)">
      <circle id="Ellipse_285-43" data-name="Ellipse 285" cx="3" cy="3" r="3" transform="translate(-24656 -22764)" fill="#28A5A0"/>
    </g>
    <g transform="translate(24887 22863)">
      <circle id="Ellipse_285-44" data-name="Ellipse 285" cx="3" cy="3" r="3" transform="translate(-24656 -22764)" fill="#28A5A0"/>
    </g>
    <g transform="translate(24920 22863)">
      <circle id="Ellipse_285-45" data-name="Ellipse 285" cx="3" cy="3" r="3" transform="translate(-24656 -22764)" fill="#28A5A0"/>
    </g>
    <g transform="translate(24953 22863)">
      <circle id="Ellipse_285-46" data-name="Ellipse 285" cx="3" cy="3" r="3" transform="translate(-24656 -22764)" fill="#28A5A0"/>
    </g>
    <g transform="translate(24986 22863)">
      <circle id="Ellipse_285-47" data-name="Ellipse 285" cx="3" cy="3" r="3" transform="translate(-24656 -22764)" fill="#28A5A0"/>
    </g>
    <g transform="translate(25019 22863)">
      <circle id="Ellipse_285-48" data-name="Ellipse 285" cx="3" cy="3" r="3" transform="translate(-24656 -22764)" fill="#28A5A0"/>
    </g>
    <g transform="translate(24656 22896)">
      <circle id="Ellipse_285-49" data-name="Ellipse 285" cx="3" cy="3" r="3" transform="translate(-24656 -22764)" fill="#28A5A0"/>
    </g>
    <g transform="translate(24689 22896)">
      <circle id="Ellipse_285-50" data-name="Ellipse 285" cx="3" cy="3" r="3" transform="translate(-24656 -22764)" fill="#28A5A0"/>
    </g>
    <g transform="translate(24722 22896)">
      <circle id="Ellipse_285-51" data-name="Ellipse 285" cx="3" cy="3" r="3" transform="translate(-24656 -22764)" fill="#28A5A0"/>
    </g>
    <g transform="translate(24755 22896)">
      <circle id="Ellipse_285-52" data-name="Ellipse 285" cx="3" cy="3" r="3" transform="translate(-24656 -22764)" fill="#28A5A0"/>
    </g>
    <g transform="translate(24788 22896)">
      <circle id="Ellipse_285-53" data-name="Ellipse 285" cx="3" cy="3" r="3" transform="translate(-24656 -22764)" fill="#28A5A0"/>
    </g>
    <g transform="translate(24821 22896)">
      <circle id="Ellipse_285-54" data-name="Ellipse 285" cx="3" cy="3" r="3" transform="translate(-24656 -22764)" fill="#28A5A0"/>
    </g>
    <g transform="translate(24854 22896)">
      <circle id="Ellipse_285-55" data-name="Ellipse 285" cx="3" cy="3" r="3" transform="translate(-24656 -22764)" fill="#28A5A0"/>
    </g>
    <g transform="translate(24887 22896)">
      <circle id="Ellipse_285-56" data-name="Ellipse 285" cx="3" cy="3" r="3" transform="translate(-24656 -22764)" fill="#28A5A0"/>
    </g>
    <g transform="translate(24920 22896)">
      <circle id="Ellipse_285-57" data-name="Ellipse 285" cx="3" cy="3" r="3" transform="translate(-24656 -22764)" fill="#28A5A0"/>
    </g>
    <g transform="translate(24953 22896)">
      <circle id="Ellipse_285-58" data-name="Ellipse 285" cx="3" cy="3" r="3" transform="translate(-24656 -22764)" fill="#28A5A0"/>
    </g>
    <g transform="translate(24986 22896)">
      <circle id="Ellipse_285-59" data-name="Ellipse 285" cx="3" cy="3" r="3" transform="translate(-24656 -22764)" fill="#28A5A0"/>
    </g>
    <g transform="translate(25019 22896)">
      <circle id="Ellipse_285-60" data-name="Ellipse 285" cx="3" cy="3" r="3" transform="translate(-24656 -22764)" fill="#28A5A0"/>
    </g>
    <g transform="translate(24656 22929)">
      <circle id="Ellipse_285-61" data-name="Ellipse 285" cx="3" cy="3" r="3" transform="translate(-24656 -22764)" fill="#28A5A0"/>
    </g>
    <g transform="translate(24689 22929)">
      <circle id="Ellipse_285-62" data-name="Ellipse 285" cx="3" cy="3" r="3" transform="translate(-24656 -22764)" fill="#28A5A0"/>
    </g>
    <g transform="translate(24722 22929)">
      <circle id="Ellipse_285-63" data-name="Ellipse 285" cx="3" cy="3" r="3" transform="translate(-24656 -22764)" fill="#28A5A0"/>
    </g>
    <g transform="translate(24755 22929)">
      <circle id="Ellipse_285-64" data-name="Ellipse 285" cx="3" cy="3" r="3" transform="translate(-24656 -22764)" fill="#28A5A0"/>
    </g>
    <g transform="translate(24788 22929)">
      <circle id="Ellipse_285-65" data-name="Ellipse 285" cx="3" cy="3" r="3" transform="translate(-24656 -22764)" fill="#28A5A0"/>
    </g>
    <g transform="translate(24821 22929)">
      <circle id="Ellipse_285-66" data-name="Ellipse 285" cx="3" cy="3" r="3" transform="translate(-24656 -22764)" fill="#28A5A0"/>
    </g>
    <g transform="translate(24854 22929)">
      <circle id="Ellipse_285-67" data-name="Ellipse 285" cx="3" cy="3" r="3" transform="translate(-24656 -22764)" fill="#28A5A0"/>
    </g>
    <g transform="translate(24887 22929)">
      <circle id="Ellipse_285-68" data-name="Ellipse 285" cx="3" cy="3" r="3" transform="translate(-24656 -22764)" fill="#28A5A0"/>
    </g>
    <g transform="translate(24920 22929)">
      <circle id="Ellipse_285-69" data-name="Ellipse 285" cx="3" cy="3" r="3" transform="translate(-24656 -22764)" fill="#28A5A0"/>
    </g>
    <g transform="translate(24953 22929)">
      <circle id="Ellipse_285-70" data-name="Ellipse 285" cx="3" cy="3" r="3" transform="translate(-24656 -22764)" fill="#28A5A0"/>
    </g>
    <g transform="translate(24986 22929)">
      <circle id="Ellipse_285-71" data-name="Ellipse 285" cx="3" cy="3" r="3" transform="translate(-24656 -22764)" fill="#28A5A0"/>
    </g>
    <g transform="translate(25019 22929)">
      <circle id="Ellipse_285-72" data-name="Ellipse 285" cx="3" cy="3" r="3" transform="translate(-24656 -22764)" fill="#28A5A0"/>
    </g>
    <g transform="translate(24656 22962)">
      <circle id="Ellipse_285-73" data-name="Ellipse 285" cx="3" cy="3" r="3" transform="translate(-24656 -22764)" fill="#28A5A0"/>
    </g>
    <g transform="translate(24689 22962)">
      <circle id="Ellipse_285-74" data-name="Ellipse 285" cx="3" cy="3" r="3" transform="translate(-24656 -22764)" fill="#28A5A0"/>
    </g>
    <g transform="translate(24722 22962)">
      <circle id="Ellipse_285-75" data-name="Ellipse 285" cx="3" cy="3" r="3" transform="translate(-24656 -22764)" fill="#28A5A0"/>
    </g>
    <g transform="translate(24755 22962)">
      <circle id="Ellipse_285-76" data-name="Ellipse 285" cx="3" cy="3" r="3" transform="translate(-24656 -22764)" fill="#28A5A0"/>
    </g>
    <g transform="translate(24788 22962)">
      <circle id="Ellipse_285-77" data-name="Ellipse 285" cx="3" cy="3" r="3" transform="translate(-24656 -22764)" fill="#28A5A0"/>
    </g>
    <g transform="translate(24821 22962)">
      <circle id="Ellipse_285-78" data-name="Ellipse 285" cx="3" cy="3" r="3" transform="translate(-24656 -22764)" fill="#28A5A0"/>
    </g>
    <g transform="translate(24854 22962)">
      <circle id="Ellipse_285-79" data-name="Ellipse 285" cx="3" cy="3" r="3" transform="translate(-24656 -22764)" fill="#28A5A0"/>
    </g>
    <g transform="translate(24887 22962)">
      <circle id="Ellipse_285-80" data-name="Ellipse 285" cx="3" cy="3" r="3" transform="translate(-24656 -22764)" fill="#28A5A0"/>
    </g>
    <g transform="translate(24920 22962)">
      <circle id="Ellipse_285-81" data-name="Ellipse 285" cx="3" cy="3" r="3" transform="translate(-24656 -22764)" fill="#28A5A0"/>
    </g>
    <g transform="translate(24953 22962)">
      <circle id="Ellipse_285-82" data-name="Ellipse 285" cx="3" cy="3" r="3" transform="translate(-24656 -22764)" fill="#28A5A0"/>
    </g>
    <g transform="translate(24986 22962)">
      <circle id="Ellipse_285-83" data-name="Ellipse 285" cx="3" cy="3" r="3" transform="translate(-24656 -22764)" fill="#28A5A0"/>
    </g>
    <g transform="translate(25019 22962)">
      <circle id="Ellipse_285-84" data-name="Ellipse 285" cx="3" cy="3" r="3" transform="translate(-24656 -22764)" fill="#28A5A0"/>
    </g>
    <g transform="translate(24656 22995)">
      <circle id="Ellipse_285-85" data-name="Ellipse 285" cx="3" cy="3" r="3" transform="translate(-24656 -22764)" fill="#28A5A0"/>
    </g>
    <g transform="translate(24689 22995)">
      <circle id="Ellipse_285-86" data-name="Ellipse 285" cx="3" cy="3" r="3" transform="translate(-24656 -22764)" fill="#28A5A0"/>
    </g>
    <g transform="translate(24722 22995)">
      <circle id="Ellipse_285-87" data-name="Ellipse 285" cx="3" cy="3" r="3" transform="translate(-24656 -22764)" fill="#28A5A0"/>
    </g>
    <g transform="translate(24755 22995)">
      <circle id="Ellipse_285-88" data-name="Ellipse 285" cx="3" cy="3" r="3" transform="translate(-24656 -22764)" fill="#28A5A0"/>
    </g>
    <g transform="translate(24788 22995)">
      <circle id="Ellipse_285-89" data-name="Ellipse 285" cx="3" cy="3" r="3" transform="translate(-24656 -22764)" fill="#28A5A0"/>
    </g>
    <g transform="translate(24821 22995)">
      <circle id="Ellipse_285-90" data-name="Ellipse 285" cx="3" cy="3" r="3" transform="translate(-24656 -22764)" fill="#28A5A0"/>
    </g>
    <g transform="translate(24854 22995)">
      <circle id="Ellipse_285-91" data-name="Ellipse 285" cx="3" cy="3" r="3" transform="translate(-24656 -22764)" fill="#28A5A0"/>
    </g>
    <g transform="translate(24887 22995)">
      <circle id="Ellipse_285-92" data-name="Ellipse 285" cx="3" cy="3" r="3" transform="translate(-24656 -22764)" fill="#28A5A0"/>
    </g>
    <g transform="translate(24920 22995)">
      <circle id="Ellipse_285-93" data-name="Ellipse 285" cx="3" cy="3" r="3" transform="translate(-24656 -22764)" fill="#28A5A0"/>
    </g>
    <g transform="translate(24953 22995)">
      <circle id="Ellipse_285-94" data-name="Ellipse 285" cx="3" cy="3" r="3" transform="translate(-24656 -22764)" fill="#28A5A0"/>
    </g>
    <g transform="translate(24986 22995)">
      <circle id="Ellipse_285-95" data-name="Ellipse 285" cx="3" cy="3" r="3" transform="translate(-24656 -22764)" fill="#28A5A0"/>
    </g>
    <g transform="translate(25019 22995)">
      <circle id="Ellipse_285-96" data-name="Ellipse 285" cx="3" cy="3" r="3" transform="translate(-24656 -22764)" fill="#28A5A0"/>
    </g>
    <g transform="translate(24656 23028)">
      <circle id="Ellipse_285-97" data-name="Ellipse 285" cx="3" cy="3" r="3" transform="translate(-24656 -22764)" fill="#28A5A0"/>
    </g>
    <g transform="translate(24689 23028)">
      <circle id="Ellipse_285-98" data-name="Ellipse 285" cx="3" cy="3" r="3" transform="translate(-24656 -22764)" fill="#28A5A0"/>
    </g>
    <g transform="translate(24722 23028)">
      <circle id="Ellipse_285-99" data-name="Ellipse 285" cx="3" cy="3" r="3" transform="translate(-24656 -22764)" fill="#28A5A0"/>
    </g>
    <g transform="translate(24755 23028)">
      <circle id="Ellipse_285-100" data-name="Ellipse 285" cx="3" cy="3" r="3" transform="translate(-24656 -22764)" fill="#28A5A0"/>
    </g>
    <g transform="translate(24788 23028)">
      <circle id="Ellipse_285-101" data-name="Ellipse 285" cx="3" cy="3" r="3" transform="translate(-24656 -22764)" fill="#28A5A0"/>
    </g>
    <g transform="translate(24821 23028)">
      <circle id="Ellipse_285-102" data-name="Ellipse 285" cx="3" cy="3" r="3" transform="translate(-24656 -22764)" fill="#28A5A0"/>
    </g>
    <g transform="translate(24854 23028)">
      <circle id="Ellipse_285-103" data-name="Ellipse 285" cx="3" cy="3" r="3" transform="translate(-24656 -22764)" fill="#28A5A0"/>
    </g>
    <g transform="translate(24887 23028)">
      <circle id="Ellipse_285-104" data-name="Ellipse 285" cx="3" cy="3" r="3" transform="translate(-24656 -22764)" fill="#28A5A0"/>
    </g>
    <g transform="translate(24920 23028)">
      <circle id="Ellipse_285-105" data-name="Ellipse 285" cx="3" cy="3" r="3" transform="translate(-24656 -22764)" fill="#28A5A0"/>
    </g>
    <g transform="translate(24953 23028)">
      <circle id="Ellipse_285-106" data-name="Ellipse 285" cx="3" cy="3" r="3" transform="translate(-24656 -22764)" fill="#28A5A0"/>
    </g>
    <g transform="translate(24986 23028)">
      <circle id="Ellipse_285-107" data-name="Ellipse 285" cx="3" cy="3" r="3" transform="translate(-24656 -22764)" fill="#28A5A0"/>
    </g>
    <g transform="translate(25019 23028)">
      <circle id="Ellipse_285-108" data-name="Ellipse 285" cx="3" cy="3" r="3" transform="translate(-24656 -22764)" fill="#28A5A0"/>
    </g>
    <g transform="translate(24656 23061)">
      <circle id="Ellipse_285-109" data-name="Ellipse 285" cx="3" cy="3" r="3" transform="translate(-24656 -22764)" fill="#28A5A0"/>
    </g>
    <g transform="translate(24689 23061)">
      <circle id="Ellipse_285-110" data-name="Ellipse 285" cx="3" cy="3" r="3" transform="translate(-24656 -22764)" fill="#28A5A0"/>
    </g>
    <g transform="translate(24722 23061)">
      <circle id="Ellipse_285-111" data-name="Ellipse 285" cx="3" cy="3" r="3" transform="translate(-24656 -22764)" fill="#28A5A0"/>
    </g>
    <g transform="translate(24755 23061)">
      <circle id="Ellipse_285-112" data-name="Ellipse 285" cx="3" cy="3" r="3" transform="translate(-24656 -22764)" fill="#28A5A0"/>
    </g>
    <g transform="translate(24788 23061)">
      <circle id="Ellipse_285-113" data-name="Ellipse 285" cx="3" cy="3" r="3" transform="translate(-24656 -22764)" fill="#28A5A0"/>
    </g>
    <g transform="translate(24821 23061)">
      <circle id="Ellipse_285-114" data-name="Ellipse 285" cx="3" cy="3" r="3" transform="translate(-24656 -22764)" fill="#28A5A0"/>
    </g>
    <g transform="translate(24854 23061)">
      <circle id="Ellipse_285-115" data-name="Ellipse 285" cx="3" cy="3" r="3" transform="translate(-24656 -22764)" fill="#28A5A0"/>
    </g>
    <g transform="translate(24887 23061)">
      <circle id="Ellipse_285-116" data-name="Ellipse 285" cx="3" cy="3" r="3" transform="translate(-24656 -22764)" fill="#28A5A0"/>
    </g>
    <g transform="translate(24920 23061)">
      <circle id="Ellipse_285-117" data-name="Ellipse 285" cx="3" cy="3" r="3" transform="translate(-24656 -22764)" fill="#28A5A0"/>
    </g>
    <g transform="translate(24953 23061)">
      <circle id="Ellipse_285-118" data-name="Ellipse 285" cx="3" cy="3" r="3" transform="translate(-24656 -22764)" fill="#28A5A0"/>
    </g>
    <g transform="translate(24986 23061)">
      <circle id="Ellipse_285-119" data-name="Ellipse 285" cx="3" cy="3" r="3" transform="translate(-24656 -22764)" fill="#28A5A0"/>
    </g>
    <g transform="translate(25019 23061)">
      <circle id="Ellipse_285-120" data-name="Ellipse 285" cx="3" cy="3" r="3" transform="translate(-24656 -22764)" fill="#28A5A0"/>
    </g>
    <g transform="translate(24656 23094)">
      <circle id="Ellipse_285-121" data-name="Ellipse 285" cx="3" cy="3" r="3" transform="translate(-24656 -22764)" fill="#28A5A0"/>
    </g>
    <g transform="translate(24689 23094)">
      <circle id="Ellipse_285-122" data-name="Ellipse 285" cx="3" cy="3" r="3" transform="translate(-24656 -22764)" fill="#28A5A0"/>
    </g>
    <g transform="translate(24722 23094)">
      <circle id="Ellipse_285-123" data-name="Ellipse 285" cx="3" cy="3" r="3" transform="translate(-24656 -22764)" fill="#28A5A0"/>
    </g>
    <g transform="translate(24755 23094)">
      <circle id="Ellipse_285-124" data-name="Ellipse 285" cx="3" cy="3" r="3" transform="translate(-24656 -22764)" fill="#28A5A0"/>
    </g>
    <g transform="translate(24788 23094)">
      <circle id="Ellipse_285-125" data-name="Ellipse 285" cx="3" cy="3" r="3" transform="translate(-24656 -22764)" fill="#28A5A0"/>
    </g>
    <g transform="translate(24821 23094)">
      <circle id="Ellipse_285-126" data-name="Ellipse 285" cx="3" cy="3" r="3" transform="translate(-24656 -22764)" fill="#28A5A0"/>
    </g>
    <g transform="translate(24854 23094)">
      <circle id="Ellipse_285-127" data-name="Ellipse 285" cx="3" cy="3" r="3" transform="translate(-24656 -22764)" fill="#28A5A0"/>
    </g>
    <g transform="translate(24887 23094)">
      <circle id="Ellipse_285-128" data-name="Ellipse 285" cx="3" cy="3" r="3" transform="translate(-24656 -22764)" fill="#28A5A0"/>
    </g>
    <g transform="translate(24920 23094)">
      <circle id="Ellipse_285-129" data-name="Ellipse 285" cx="3" cy="3" r="3" transform="translate(-24656 -22764)" fill="#28A5A0"/>
    </g>
    <g transform="translate(24953 23094)">
      <circle id="Ellipse_285-130" data-name="Ellipse 285" cx="3" cy="3" r="3" transform="translate(-24656 -22764)" fill="#28A5A0"/>
    </g>
    <g transform="translate(24986 23094)">
      <circle id="Ellipse_285-131" data-name="Ellipse 285" cx="3" cy="3" r="3" transform="translate(-24656 -22764)" fill="#28A5A0"/>
    </g>
    <g transform="translate(25019 23094)">
      <circle id="Ellipse_285-132" data-name="Ellipse 285" cx="3" cy="3" r="3" transform="translate(-24656 -22764)" fill="#28A5A0"/>
    </g>
  </g>
</svg>
