<svg xmlns="http://www.w3.org/2000/svg" width="20" height="20" viewBox="0 0 20 20"><defs><style>.a{fill:none;}.b{fill:#b6b8c5;}</style></defs><path class="a" d="M0,0H20V20H0Z"/><path class="b" d="M10,5.967A8.124,8.124,0,0,1,17.216,10,8.114,8.114,0,0,1,10,14.033,8.114,8.114,0,0,1,2.784,10,8.124,8.124,0,0,1,10,5.967M10,4.5A9.716,9.716,0,0,0,1,10a9.716,9.716,0,0,0,9,5.5A9.716,9.716,0,0,0,19,10,9.716,9.716,0,0,0,10,4.5Zm0,3.667A1.949,1.949,0,0,1,12.045,10,1.949,1.949,0,0,1,10,11.833,1.949,1.949,0,0,1,7.955,10,1.949,1.949,0,0,1,10,8.167M10,6.7A3.512,3.512,0,0,0,6.318,10,3.512,3.512,0,0,0,10,13.3,3.512,3.512,0,0,0,13.682,10,3.512,3.512,0,0,0,10,6.7Z"/></svg>