<svg xmlns="http://www.w3.org/2000/svg" width="42" height="42" viewBox="0 0 42 42"><defs><style>.a{fill:#f2f4fe;}.b{fill:#5976f0;}</style></defs><g transform="translate(-1762 -183)"><circle class="a" cx="21" cy="21" r="21" transform="translate(1762 183)"/><path class="b" d="M12.369,21.639h2.095a1.047,1.047,0,0,0,0-2.095H12.369a1.047,1.047,0,1,0,0,2.095ZM6,11.047a1.05,1.05,0,0,0,1.047,1.047H19.786a1.047,1.047,0,1,0,0-2.095H7.047A1.05,1.05,0,0,0,6,11.047Zm3.519,5.819h7.794a1.047,1.047,0,1,0,0-2.095H9.519a1.047,1.047,0,1,0,0,2.095Z" transform="translate(1770.028 189.713)"/></g></svg>