<svg xmlns="http://www.w3.org/2000/svg" width="20.002" height="20" viewBox="0 0 20.002 20"><defs><style>.a{fill:#fff;}</style></defs><path class="a" d="M21.221,3h-5.37A1.754,1.754,0,0,0,14.1,4.756V9.022a1.754,1.754,0,0,0,1.753,1.756h5.37a1.754,1.754,0,0,0,1.753-1.756V4.756A1.754,1.754,0,0,0,21.221,3ZM10.369,3H4.513A1.511,1.511,0,0,0,3,4.512v6.976A1.511,1.511,0,0,0,4.513,13h5.856a1.511,1.511,0,0,0,1.51-1.512V4.512A1.511,1.511,0,0,0,10.369,3ZM21.346,13H15.726A1.629,1.629,0,0,0,14.1,14.63v6.74A1.629,1.629,0,0,0,15.726,23h5.621a1.629,1.629,0,0,0,1.628-1.63V14.63A1.629,1.629,0,0,0,21.346,13ZM9.953,15.191H4.867a1.9,1.9,0,0,0-1.9,1.9v3.982a1.9,1.9,0,0,0,1.9,1.9H9.953a1.9,1.9,0,0,0,1.9-1.9V17.089A1.9,1.9,0,0,0,9.953,15.191Z" transform="translate(-2.972 -3)"/></svg>