<svg xmlns="http://www.w3.org/2000/svg" width="20" height="20" viewBox="0 0 20 20"><defs><style>.a{fill:#b7b9c5;}.b,.d{fill:none;}.b{stroke:#b7b9c6;stroke-width:1.8px;}.c{stroke:none;}</style></defs><g transform="translate(-779 -260)"><g transform="translate(0 0.03)"><g transform="translate(21)"><path class="a" d="M237.618,136.079a1.207,1.207,0,0,1-1.3-1.084v-3.832a1.322,1.322,0,0,1,2.6,0V135A1.207,1.207,0,0,1,237.618,136.079Z" transform="translate(530.36 138.916)"/><path class="a" d="M1,.025a1.4,1.4,0,1,1-1.4,1.4A1.4,1.4,0,0,1,1,.025Z" transform="translate(767 264.945)"/></g></g><g class="b" transform="translate(779 260)"><circle class="c" cx="10" cy="10" r="10"/><circle class="d" cx="10" cy="10" r="9.1"/></g></g></svg>