<svg xmlns="http://www.w3.org/2000/svg" width="21.557" height="23" viewBox="0 0 21.557 23"><defs><style>.a{fill:#fff;}.b{fill:#5976f0;}</style></defs><path class="a" d="M79.877,4.522C81.735,3.077,81.712.22,80.948.078c-1.015-.189-3.628.6-4.694.749C74.743,1,72.345-.653,71.421.287c-.751.764-.485,3.024,1.533,4.235-6.777,1.172-13.822,18.67,3.3,18.472S86.886,6.34,79.877,4.522Z" transform="translate(-65.589 0.004)"/><path class="b" d="M10.366,7.646c-1.447-.363-2-.529-2-1.113,0-.67.815-.848,1.394-.848s1.094.129,1.26.658a.92.92,0,0,0,1.182.614.9.9,0,0,0,.723-.979,2.859,2.859,0,0,0-1.968-1.931V3.616c0-.51-.667-.922-1.2-.922s-1.19.412-1.19.922v.431A2.637,2.637,0,0,0,6.3,6.532c0,1.42.951,2.291,3,2.8,1.594.369,1.868.744,1.868,1.232s-.215.8-1.624.8A1.7,1.7,0,0,1,8.1,10.479a1,1,0,0,0-1.568-.122.91.91,0,0,0-.172,1.007,3.013,3.013,0,0,0,2.21,1.628v.458c0,.51.661.907,1.19.907s1.2-.455,1.2-.966v-.4a2.615,2.615,0,0,0,2.3-2.431c0-1.746-1.445-2.552-2.892-2.914Z" transform="translate(0.775 5.006)"/></svg>