<svg xmlns="http://www.w3.org/2000/svg" width="20" height="21" viewBox="0 0 20 21"><defs><style>.a{fill:#c3d8d7;}.b{fill:#387d7a;}</style></defs><g transform="translate(0)"><path class="a" d="M22.344,9.011,16.978,3.644A2.22,2.22,0,0,0,15.411,3H5.222A2.229,2.229,0,0,0,3,5.222V21.778A2.229,2.229,0,0,0,5.222,24H20.778A2.229,2.229,0,0,0,23,21.778V10.589A2.229,2.229,0,0,0,22.344,9.011Z" transform="translate(-3 -3)"/><path class="b" d="M11.185,11.816a1.079,1.079,0,1,1,0,2.157H7.93a1.079,1.079,0,1,1,0-2.157Z" transform="translate(-1.207 -4.596)"/><path class="b" d="M14.627,11.863a1.079,1.079,0,1,1,0,2.157H7.914a1.079,1.079,0,1,1,0-2.157Z" transform="translate(-1.207 0.404)"/></g></svg>