<svg xmlns="http://www.w3.org/2000/svg" width="76.035" height="87.511" viewBox="0 0 76.035 87.511"><defs><style>.a{fill:#5976f0;}.b{fill:#dee3fc;}.c{fill:#fff;}</style></defs><g transform="translate(0.001)"><path class="a" d="M103.935,6.693V76.967a1.122,1.122,0,0,0,1.032,1.211,1.154,1.154,0,0,0,.9-.319l7.518-6.916a1.39,1.39,0,0,1,1.595,0l2.62,2.342V19.744a6.765,6.765,0,0,1,6.834-6.693h42.145V6.693A6.765,6.765,0,0,0,159.748,0H110.769A6.765,6.765,0,0,0,103.935,6.693Z" transform="translate(-103.931)"/><path class="b" d="M41.221,117.661V133.47a1.076,1.076,0,0,0,1.032,1.137,1.2,1.2,0,0,0,.9-.3l7.518-6.491a1.465,1.465,0,0,1,1.595,0l9,7.433a1.212,1.212,0,0,0,1.595,0l8.885-7.433a1.465,1.465,0,0,1,1.595,0l8.885,7.433a1.212,1.212,0,0,0,1.595,0l9-7.433a1.465,1.465,0,0,1,1.595,0l7.518,6.491a1.211,1.211,0,0,0,1.611-.006,1,1,0,0,0,.325-.831V67.408a6.576,6.576,0,0,0-6.834-6.282H48.055a6.575,6.575,0,0,0-6.834,6.282v50.254Z" transform="translate(-27.839 -48.038)"/><path class="c" d="M126.233,150.761H111.915a2.237,2.237,0,0,1,0-4.475h14.318a2.237,2.237,0,0,1,0,4.475Z" transform="translate(-79.55 -117.667)"/><path class="c" d="M139.656,218.678H111.914a2.237,2.237,0,0,1,0-4.475h27.742a2.237,2.237,0,0,1,0,4.475Z" transform="translate(-79.549 -171.043)"/><path class="c" d="M139.656,286.6H111.914a2.237,2.237,0,0,1,0-4.474h27.742a2.237,2.237,0,0,1,0,4.474Z" transform="translate(-79.549 -224.419)"/></g></svg>