<svg xmlns="http://www.w3.org/2000/svg" width="20" height="20" viewBox="0 0 20 20"><defs><style>.a{fill:#c3d8d7;}</style></defs><g transform="translate(0 0)"><path class="a" d="M265.383,115.257h-4.3a.612.612,0,0,0-.6.622v14.756a.612.612,0,0,0,.6.622h4.3a.612.612,0,0,0,.6-.622V115.879A.612.612,0,0,0,265.383,115.257Z" transform="translate(-245.984 -111.257)"/><path class="a" d="M265.383,115.257h-4.3a.707.707,0,0,0-.6.778v18.445a.707.707,0,0,0,.6.778h4.3a.707.707,0,0,0,.6-.778V116.035A.707.707,0,0,0,265.383,115.257Z" transform="translate(-253.234 -115.257)"/><path class="a" d="M265.383,115.257h-4.3a.547.547,0,0,0-.6.467V126.79a.547.547,0,0,0,.6.467h4.3a.547.547,0,0,0,.6-.467V115.724A.547.547,0,0,0,265.383,115.257Z" transform="translate(-260.484 -107.257)"/></g></svg>