<svg xmlns="http://www.w3.org/2000/svg" width="75.127" height="76.201" viewBox="0 0 75.127 76.201"><defs><style>.a{fill:#5976f0;}.b{fill:none;stroke:#5976f0;stroke-linecap:round;stroke-width:8px;}.c{fill:#e4e9fd;}</style></defs><g transform="translate(-1186 -194.799)"><g transform="translate(1190 197.502)"><g transform="translate(5.878 -3.307)"><g transform="translate(0.034 1.992)"><path class="a" d="M5.185,26.789s.539-.43,15.075-12.317L31.19,25.156a4,4,0,0,0,3.34.144L50.271,13.345c.18,3.511,1.2,4.335,2.608,4.955a2.474,2.474,0,0,0,.961.213,3.72,3.72,0,0,0,3.689-2.348l2.1-9.673a4.216,4.216,0,0,0-.148-2.917A4.413,4.413,0,0,0,56.335,1.69L46.424-.688a3.909,3.909,0,0,0-4.209,3.077c-.339,2.1.76,4.171,3.691,5.067L32.923,16.871,21.933,6.011c-.792-.473-2.435-.863-3.3-.059L.561,20.707c-1.231,1.126-2.017,3.1-.826,4.7s4.074,2.667,5.45,1.384Z" transform="translate(0 16.816) rotate(-17)"/></g></g><g transform="translate(0 15.479)"><path class="b" d="M60,0H0" transform="translate(2.078 54.019)"/><path class="b" d="M0,11.072v14" transform="translate(0 28.454)"/><path class="b" d="M0,11.072v26" transform="translate(0 -16.072)"/></g></g><rect class="c" width="7.203" height="34" rx="3.601" transform="translate(1247 222.788)"/><rect class="c" width="8" height="12" rx="4" transform="translate(1202 245.392)"/><rect class="c" width="8" height="22" rx="4" transform="translate(1232 234.589)"/><rect class="c" width="8" height="25" rx="4" transform="translate(1217 231.589)"/></g></svg>