<svg xmlns="http://www.w3.org/2000/svg" width="28" height="28" viewBox="0 0 28 28"><defs><style>.a{fill:#28a5a0;}</style></defs><g transform="translate(-84 -329)"><path class="a" d="M267.349,115.257h-6.023a.857.857,0,0,0-.842.872v20.679a.858.858,0,0,0,.842.872h6.023a.858.858,0,0,0,.842-.872V116.129A.857.857,0,0,0,267.349,115.257Z" transform="translate(-156.192 219.32)"/><path class="a" d="M267.349,115.257h-6.023a.99.99,0,0,0-.842,1.089v25.823a.99.99,0,0,0,.842,1.089h6.023a.99.99,0,0,0,.842-1.089V116.346A.989.989,0,0,0,267.349,115.257Z" transform="translate(-166.338 213.743)"/><path class="a" d="M267.349,115.257h-6.023a.766.766,0,0,0-.842.654v15.51a.766.766,0,0,0,.842.654h6.023a.766.766,0,0,0,.842-.654v-15.51A.766.766,0,0,0,267.349,115.257Z" transform="translate(-176.484 224.926)"/></g></svg>