<svg xmlns="http://www.w3.org/2000/svg" width="20" height="20" viewBox="0 0 20 20"><defs><style>.a{fill:none;}.b{fill:#b6b8c5;}</style></defs><path class="a" d="M0,0H20V20H0ZM0,0H20V20H0ZM0,0H20V20H0ZM0,0H20V20H0Z"/><path class="b" d="M10,5.258A8.023,8.023,0,0,1,17.216,9.61a7.671,7.671,0,0,1-1.972,2.468L16.4,13.193A9.344,9.344,0,0,0,19,9.61a9.675,9.675,0,0,0-9-5.933,10,10,0,0,0-2.978.451l1.35,1.305A8.542,8.542,0,0,1,10,5.258Zm-.875.9L10.818,7.8a2.012,2.012,0,0,1,1.047,1.013l1.694,1.638a3.587,3.587,0,0,0,.115-.847A3.657,3.657,0,0,0,9.125,6.16Zm-7.3-2.587,2.193,2.12A9.319,9.319,0,0,0,1,9.61a9.675,9.675,0,0,0,9,5.933,9.886,9.886,0,0,0,3.535-.649l2.8,2.706,1.154-1.115L2.98,2.45ZM7.963,9.507,10.1,11.572a.423.423,0,0,1-.1.016A2.013,2.013,0,0,1,7.955,9.61C7.955,9.57,7.963,9.546,7.963,9.507ZM5.181,6.817,6.613,8.2A3.536,3.536,0,0,0,6.318,9.61,3.628,3.628,0,0,0,10,13.17a3.8,3.8,0,0,0,1.448-.285l.8.775a8.809,8.809,0,0,1-2.25.3A8.023,8.023,0,0,1,2.784,9.61a7.9,7.9,0,0,1,2.4-2.793Z"/></svg>