<svg xmlns="http://www.w3.org/2000/svg" xmlns:xlink="http://www.w3.org/1999/xlink" width="260" height="88" viewBox="0 0 260 88"><defs><style>.a{opacity:0.14;fill:url(#a);}</style><linearGradient id="a" x1="0.5" y1="1.506" x2="0.362" y2="0.19" gradientUnits="objectBoundingBox"><stop offset="0" stop-color="#28a5a0"/><stop offset="1" stop-color="#fcfcfd"/></linearGradient></defs><path class="a" d="M-2983.363-1518.129c10.833.319,13.3,9.239,13.3,11.466v43.605s-5.326-.471-14.486,4.016c-5.187,3.07-14.24,10.586-21.1,12.042-7.3,1.549-14.454-3.965-21.7-17.546-11.141-15.5-15-17.046-20.98-13.1-5.766,3.8-10.244,10.177-18.392,28.846-16.071,36.823-21.608,10.46-33.446-5.2s-26.757-3.546-33.416,2.141-20-26.847-33.532-25.111-22.169,15.729-34.571,19.2c-2.948.826-6.6,0-10.109-2.664-7.265-6.705-13.541-13.638-18.272-12.742l.274-44.965" transform="translate(3230.065 1518.134)"/></svg>