<svg xmlns="http://www.w3.org/2000/svg" width="24.092" height="25.813" viewBox="0 0 24.092 25.813">
  <path id="Path_7975" data-name="Path 7975" d="M-256.776,32c3.483,1.971,6.952,3.96,10.456,5.9a1.98,1.98,0,0,1,1.253,2.05,14.635,14.635,0,0,0,0,2.365,1.856,1.856,0,0,1-1.2,1.971c-3.23,1.6-6.428,3.256-9.643,4.88a2.509,2.509,0,0,1-3.784-2.156c.052-2,.048-1.971,2.115-1.577a2.311,2.311,0,0,0,1.368-.16c1.992-1,3.968-2.056,5.914-3.118,1.232-.67,1.242-1.738.021-2.444-1.986-1.147-4-2.251-5.991-3.392a1.61,1.61,0,0,0-1.744,0c-2.186,1.21-4.385,2.4-6.605,3.548a1.806,1.806,0,0,0-1.1,1.742v6.8a1.773,1.773,0,0,0,1.082,1.748c2.245,1.114,4.477,2.245,6.682,3.414a1.849,1.849,0,0,0,1.938-.043c3.051-1.638,6.121-3.24,9.188-4.853,1.33-.7,1.631-.463,1.773.948a2.746,2.746,0,0,1-1.892,3.126c-3.132,1.472-6.162,3.165-9.215,4.8a1.783,1.783,0,0,1-1.925-.024q-4.926-2.759-9.911-5.432a1.77,1.77,0,0,1-1.123-1.774c.054-3.644.048-7.293,0-10.935a1.867,1.867,0,0,1,1.18-1.869c3.458-1.8,6.891-3.658,10.324-5.493Z" transform="translate(269.122 -32)" fill="#fff"/>
</svg>
