<svg xmlns="http://www.w3.org/2000/svg" width="159.773" height="32" viewBox="0 0 159.773 32"><defs><style>.a{fill:#fff;}</style></defs><g transform="translate(-59.226 -59)"><g transform="translate(108.953 -83.236)"><path class="a" d="M-50.279,216.826a11.513,11.513,0,0,1-2.616-1.86,1.255,1.255,0,0,1-.039-2.051c.74-.568,1.444-.324,1.973.5a2.052,2.052,0,0,0,2.643.811,2.133,2.133,0,0,0,1.392-2.444,23,23,0,0,1-2.308.225,4.208,4.208,0,0,1-4.448-3.757,32.967,32.967,0,0,1,0-6.643c.262-2.543,2.465-4,5.212-3.8a4.5,4.5,0,0,1,4.027,4.406q.073,5.1,0,10.2c-.031,2.449-1.141,3.564-3.216,4.385A4.312,4.312,0,0,1-50.279,216.826Zm-1.047-11.9V207.4a2.213,2.213,0,0,0,2.169,2.169,2.171,2.171,0,0,0,2.227-1.97,52.791,52.791,0,0,0,0-5.345A2.206,2.206,0,0,0-49.2,200.2a2.2,2.2,0,0,0-2.093,2.234c-.047.835-.016,1.664-.021,2.491Z" transform="translate(154.454 -45.782)"/><path class="a" d="M-420.706,205.684c-.026.463-.044.718-.05.975a2.173,2.173,0,0,0,1.507,2.328,2.077,2.077,0,0,0,2.617-.895c.479-.734,1.109-1.02,1.868-.492s.573,1.28.157,1.959a4.726,4.726,0,0,1-5.05,1.9,4.353,4.353,0,0,1-3.469-3.759,60.294,60.294,0,0,1,0-6.487A4.565,4.565,0,0,1-418.7,197.2a4.613,4.613,0,0,1,4.71,3.527,19.1,19.1,0,0,1,.2,3.486,1.357,1.357,0,0,1-1.57,1.477C-417.122,205.669-418.856,205.684-420.706,205.684Zm4.333-2.58c.139-1.3.167-2.562-1.075-3.056a3.157,3.157,0,0,0-2.4.166c-1.07.588-1.047,1.748-.8,2.89Z" transform="translate(423.26 -45.26)"/><path class="a" d="M-333.322,202.125c-.338-1.964-1.923-2.71-3.451-1.654-.785.538-1.523.895-2.138,0-.651-.944,0-1.623.785-2.133a4.733,4.733,0,0,1,4.848-.26,4.246,4.246,0,0,1,2.5,3.961c.026,1.774.039,3.55,0,5.327a4.5,4.5,0,0,1-4.574,4.378,4.658,4.658,0,0,1-4.814-4.3C-340.488,204.13-338.157,200.822-333.322,202.125Zm.107,4.648a2.22,2.22,0,0,0-2.214-2.479,2.178,2.178,0,0,0-2.227,2.445,2.257,2.257,0,0,0,2.25,2.572A2.307,2.307,0,0,0-333.215,206.773Z" transform="translate(362.842 -45.509)"/><path class="a" d="M-202.14,204.541a28.58,28.58,0,0,1-.018,3.106,4.45,4.45,0,0,1-4.571,3.93,4.4,4.4,0,0,1-4.634-3.993,45.325,45.325,0,0,1,0-6.337,4.555,4.555,0,0,1,4.629-4.058,4.62,4.62,0,0,1,4.574,3.99A29.983,29.983,0,0,1-202.14,204.541Zm-2.41-.086c0-.866.037-1.735,0-2.6a2.131,2.131,0,0,0-2.156-2.149,2.148,2.148,0,0,0-1.562.558,2.123,2.123,0,0,0-.691,1.5c-.076,1.774-.078,3.553,0,5.325a2.118,2.118,0,0,0,.717,1.485,2.143,2.143,0,0,0,1.57.528,2.148,2.148,0,0,0,2.125-2.18c.026-.819,0-1.644,0-2.466Z" transform="translate(269.163 -45.256)"/><path class="a" d="M-91.443,205.749v4.284c0,.874-.356,1.444-1.308,1.41-.884-.031-1.149-.632-1.149-1.423,0-2.6.029-5.2,0-7.79-.029-1.953-1.724-3.189-3.192-2.24a3.024,3.024,0,0,0-1.19,2.081c-.144,2.5-.06,5.015-.055,7.525,0,.926-.076,1.855-1.285,1.839s-1.248-.973-1.248-1.878v-7.27a4.808,4.808,0,0,1,4.772-5.08,4.75,4.75,0,0,1,4.642,5.041C-91.438,203.411-91.44,204.581-91.443,205.749Z" transform="translate(189.171 -45.269)"/><path class="a" d="M-293.035,204.489c0-.91-.021-1.821,0-2.726a4.6,4.6,0,0,1,3.252-4.25,4.8,4.8,0,0,1,5.233,1.693c.5.692.785,1.472,0,2.081s-1.45.242-1.957-.536a2.054,2.054,0,0,0-2.522-.838,2.143,2.143,0,0,0-1.515,2.19v4.8a2.1,2.1,0,0,0,1.507,2.19,2.107,2.107,0,0,0,2.593-.934,1.213,1.213,0,0,1,1.873-.489c.74.515.586,1.262.165,1.951a4.84,4.84,0,0,1-5.285,1.9,4.548,4.548,0,0,1-3.333-4.042C-293.069,206.479-293.035,205.482-293.035,204.489Z" transform="translate(328.524 -45.347)"/><path class="a" d="M-245.023,184.129a13.078,13.078,0,0,1,2.726.052c.489.11.866.722,1.308,1.109-.413.411-.767,1.062-1.251,1.18a12.631,12.631,0,0,1-2.734.052c0,2.6-.1,5.115.047,7.614a1.984,1.984,0,0,0,2.242,1.758c.934,0,1.722.2,1.667,1.321-.055,1.047-.858,1.138-1.711,1.133a4.463,4.463,0,0,1-4.741-4.5c-.078-4.356-.024-8.713-.026-13.067,0-.84.277-1.515,1.225-1.515s1.266.623,1.261,1.484C-245.023,181.8-245.023,182.839-245.023,184.129Z" transform="translate(295.338 -32.025)"/><path class="a" d="M-373.521,184.114a11.831,11.831,0,0,1,2.548.05,1.884,1.884,0,0,1,1.264,1.1c.165.785-.432,1.251-1.279,1.248s-1.716,0-2.745,0V191.7c0,1.743-.013,3.483,0,5.233,0,.827-.3,1.366-1.177,1.389s-1.261-.5-1.261-1.308c0-4.527-.055-9.056.047-13.58a4.5,4.5,0,0,1,4.655-4.186c.9,0,1.764.11,1.8,1.209s-.761,1.347-1.7,1.329a2.039,2.039,0,0,0-2.287,1.983A2.017,2.017,0,0,0-373.521,184.114Z" transform="translate(388.537 -32.011)"/><path class="a" d="M-162.076,206.641v3.766c0,.832-.358,1.334-1.219,1.355s-1.253-.536-1.253-1.329c0-2.77-.118-5.548.078-8.305a5.063,5.063,0,0,1,7.036-4.162c.725.294,1.211.736.947,1.576s-.908.929-1.682.78c-2.742-.554-3.906.4-3.906,3.2Z" transform="translate(235.005 -45.544)"/><path class="a" d="M-121.831,204.8v-5.324c0-.858.167-1.592,1.24-1.6s1.282.739,1.285,1.584q.018,5.462,0,10.906c0,.83-.212,1.613-1.269,1.61s-1.264-.713-1.256-1.594C-121.823,208.525-121.831,206.663-121.831,204.8Z" transform="translate(203.714 -45.766)"/><path class="a" d="M-119.787,180.644a1.378,1.378,0,0,1-1.455,1.5,1.371,1.371,0,0,1-1.081-.4,1.371,1.371,0,0,1-.392-1.085,1.337,1.337,0,0,1,.376-1.023,1.337,1.337,0,0,1,1.013-.4A1.389,1.389,0,0,1-119.787,180.644Z" transform="translate(204.373 -32)"/></g><path class="a" d="M-253.817,32c4.318,2.443,8.618,4.909,12.962,7.308a2.454,2.454,0,0,1,1.553,2.541,18.144,18.144,0,0,0,0,2.932,2.3,2.3,0,0,1-1.494,2.443c-4,1.982-7.968,4.037-11.955,6.05a3.11,3.11,0,0,1-4.691-2.673c.065-2.478.059-2.443,2.622-1.955a2.865,2.865,0,0,0,1.7-.2c2.47-1.241,4.919-2.549,7.331-3.866,1.527-.831,1.54-2.155.026-3.03-2.462-1.422-4.96-2.79-7.427-4.205a2,2,0,0,0-2.162,0c-2.71,1.5-5.436,2.981-8.188,4.4a2.239,2.239,0,0,0-1.359,2.16v8.427a2.2,2.2,0,0,0,1.341,2.167c2.783,1.381,5.55,2.783,8.284,4.232a2.292,2.292,0,0,0,2.4-.054c3.782-2.03,7.588-4.017,11.39-6.016,1.649-.865,2.022-.574,2.2,1.175.189,1.9-.463,2.991-2.345,3.875-3.883,1.825-7.639,3.924-11.424,5.95a2.21,2.21,0,0,1-2.387-.029q-6.107-3.421-12.286-6.734a2.194,2.194,0,0,1-1.393-2.2c.067-4.518.06-9.041,0-13.556a2.314,2.314,0,0,1,1.463-2.316c4.287-2.236,8.543-4.535,12.8-6.81Z" transform="translate(328.348 27)"/></g></svg>