<svg xmlns="http://www.w3.org/2000/svg" width="21" height="21" viewBox="0 0 21 21"><defs><style>.a{fill:#c3d8d7;}</style></defs><g transform="translate(0)"><path class="a" d="M9.322,30.648l6.027.036c.929,0,.683-.717.683-1.6V17.688c0-.884.246-1.6-.683-1.6l-6.027-.036a1.6,1.6,0,1,1,0-3.2h6.825c2.783,0,3.049,1.251,3.049,3.807V30.044c0,2.648-.265,3.806-3.049,3.806H9.322a1.6,1.6,0,1,1,0-3.2Z" transform="translate(1.804 -12.85)"/><path class="a" d="M171.475,115.678l3.385-3.515a1.271,1.271,0,0,1,1.9.014,1.529,1.529,0,0,1-.013,2.047l-1.06,1.037h8.168a1.452,1.452,0,0,1,0,2.895h-8.168l1.06,1.037a1.53,1.53,0,0,1,.013,2.047,1.271,1.271,0,0,1-1.9.014l-3.385-3.515a1.529,1.529,0,0,1,0-2.061Z" transform="translate(-171.076 -106.404)"/></g></svg>