<svg xmlns="http://www.w3.org/2000/svg" width="18" height="10.449" viewBox="0 0 18 10.449"><defs><style>.a{fill:none;stroke-linecap:round;}.b,.c{stroke:none;}.c{fill:#7d819a;}</style></defs><g transform="translate(-30 -27.651)"><g class="a" transform="translate(30 27.651)"><path class="b" d="M1.054,0H16.946A1.134,1.134,0,0,1,18,1.2a1.134,1.134,0,0,1-1.054,1.2H1.054A1.134,1.134,0,0,1,0,1.2,1.134,1.134,0,0,1,1.054,0Z"/><path class="c" d="M 1.053720474243164 0 L 16.94627952575684 0 C 17.52823066711426 0 18 0.5372599363327026 18 1.199999928474426 C 18 1.86273992061615 17.52823066711426 2.399999856948853 16.94627952575684 2.399999856948853 L 1.053720474243164 2.399999856948853 C 0.4717693328857422 2.399999856948853 0 1.86273992061615 0 1.199999928474426 C 0 0.5372599363327026 0.4717693328857422 0 1.053720474243164 0 Z"/></g><g class="a" transform="translate(30 35.7)"><path class="b" d="M1.286,0H16.714A1.245,1.245,0,0,1,18,1.2a1.245,1.245,0,0,1-1.286,1.2H1.286A1.245,1.245,0,0,1,0,1.2,1.245,1.245,0,0,1,1.286,0Z"/><path class="c" d="M 1.285709381103516 0 L 16.71429061889648 0 C 17.42436981201172 0 18 0.5372599363327026 18 1.199999928474426 C 18 1.86273992061615 17.42436981201172 2.399999856948853 16.71429061889648 2.399999856948853 L 1.285709381103516 2.399999856948853 C 0.5756301879882812 2.399999856948853 0 1.86273992061615 0 1.199999928474426 C 0 0.5372599363327026 0.5756301879882812 0 1.285709381103516 0 Z"/></g></g></svg>