<svg version="1.2" xmlns="http://www.w3.org/2000/svg" viewBox="0 0 30 32" width="30" height="32">
	<title>logo-green-svg</title>
	<style>
		.s0 { fill: #494f4d } 
		.s1 { fill: #28a5a0 } 
	</style>
	<g id="Layer">
		<g id="Layer">
			<path id="Layer" fill-rule="evenodd" class="s0" d="m153.9 28.8q-0.4-0.2-0.7-0.4-0.3-0.2-0.7-0.4-0.3-0.3-0.6-0.5-0.3-0.3-0.6-0.6-0.3-0.1-0.4-0.4-0.2-0.3-0.2-0.6 0-0.3 0.2-0.5 0.1-0.3 0.3-0.5c0.8-0.6 1.5-0.3 2 0.5q0.2 0.3 0.5 0.6 0.3 0.2 0.7 0.3 0.4 0.1 0.7 0.1 0.4 0 0.8-0.2 0.3-0.1 0.6-0.4 0.3-0.2 0.5-0.6 0.2-0.3 0.3-0.7 0-0.4 0-0.7-0.3 0-0.6 0-0.3 0.1-0.6 0.1-0.3 0-0.6 0.1-0.3 0-0.6 0-0.8 0-1.5-0.2-0.8-0.3-1.4-0.8-0.7-0.5-1-1.2-0.4-0.8-0.5-1.6-0.1-0.8-0.1-1.6-0.1-0.9-0.1-1.7 0-0.8 0.1-1.7 0-0.8 0.1-1.6c0.3-2.6 2.5-4 5.2-3.8q0.8 0.1 1.6 0.4 0.7 0.4 1.3 1 0.5 0.6 0.8 1.4 0.3 0.8 0.3 1.6 0.1 5.1 0 10.2c0 2.4-1.1 3.6-3.2 4.4q-0.3 0.1-0.6 0.1-0.4 0.1-0.7 0.1-0.3 0-0.6 0-0.4-0.1-0.7-0.2zm-1-11.9v2.5q0 0.4 0.1 0.8 0.2 0.4 0.5 0.7 0.3 0.3 0.7 0.5 0.4 0.1 0.8 0.2 0.4 0 0.8-0.2 0.4-0.1 0.7-0.4 0.3-0.3 0.5-0.6 0.2-0.4 0.3-0.8 0-0.7 0-1.4 0-0.6 0-1.3 0-0.7 0-1.3 0-0.7 0-1.4-0.1-0.4-0.3-0.8-0.2-0.4-0.5-0.6-0.3-0.3-0.7-0.5-0.4-0.1-0.8-0.1-0.4 0-0.8 0.2-0.4 0.2-0.7 0.5-0.3 0.3-0.5 0.7-0.1 0.4-0.1 0.8c-0.1 0.9 0 1.7 0 2.5z"/>
			<path id="Layer" fill-rule="evenodd" class="s0" d="m52.3 18.2c0 0.5-0.1 0.7-0.1 1q0 0.3 0.1 0.7 0.1 0.4 0.3 0.7 0.2 0.3 0.5 0.5 0.3 0.3 0.6 0.4 0.4 0.1 0.8 0.2 0.4 0 0.7-0.2 0.4-0.1 0.7-0.3 0.3-0.3 0.5-0.6c0.4-0.7 1.1-1 1.8-0.5 0.8 0.5 0.6 1.3 0.2 2q-0.4 0.6-1 1-0.6 0.4-1.2 0.7-0.7 0.3-1.4 0.3-0.8 0-1.5-0.1-0.6-0.2-1.2-0.5-0.6-0.3-1.1-0.9-0.5-0.5-0.8-1.1-0.3-0.6-0.3-1.3-0.1-0.8-0.1-1.6 0-0.8 0-1.6 0-0.9 0-1.7 0-0.8 0.1-1.6 0.1-0.8 0.4-1.5 0.4-0.8 1-1.3 0.6-0.6 1.4-0.9 0.8-0.3 1.6-0.3 0.8 0 1.6 0.2 0.7 0.2 1.4 0.7 0.6 0.5 1.1 1.2 0.4 0.6 0.6 1.4 0.1 0.5 0.1 0.9 0.1 0.4 0.1 0.9 0 0.4 0 0.8 0 0.5 0 0.9 0 0.3-0.1 0.6-0.1 0.3-0.3 0.5-0.3 0.3-0.6 0.4-0.3 0-0.6 0c-1.7 0-3.5 0-5.3 0zm4.3-2.6c0.2-1.3 0.2-2.6-1.1-3q-0.3-0.1-0.6-0.2-0.3 0-0.6 0-0.3 0-0.6 0.1-0.3 0.1-0.6 0.2c-1 0.6-1 1.8-0.8 2.9z"/>
			<path id="Layer" fill-rule="evenodd" class="s0" d="m79.2 14.4c-0.3-2-1.9-2.7-3.4-1.7-0.8 0.6-1.5 0.9-2.1 0-0.7-0.9 0-1.6 0.7-2.1q0.6-0.4 1.2-0.6 0.6-0.2 1.2-0.2 0.7 0 1.3 0.1 0.6 0.1 1.2 0.4 0.6 0.3 1 0.7 0.5 0.4 0.8 0.9 0.4 0.6 0.5 1.2 0.2 0.6 0.2 1.2 0 2.7 0 5.3 0 0.9-0.4 1.7-0.4 0.8-1 1.5-0.6 0.6-1.5 0.9-0.8 0.3-1.7 0.3-0.9 0-1.7-0.3-0.9-0.3-1.6-0.9-0.6-0.6-1-1.4-0.4-0.8-0.5-1.7c-0.3-3.3 2-6.6 6.8-5.3zm0.2 4.6q0-0.4-0.1-0.9-0.2-0.5-0.5-0.8-0.3-0.4-0.7-0.6-0.5-0.2-1-0.2-0.4 0-0.9 0.2-0.4 0.2-0.7 0.6-0.4 0.3-0.5 0.8-0.1 0.4-0.1 0.9-0.1 0.5 0.1 1 0.1 0.4 0.4 0.8 0.4 0.4 0.8 0.6 0.5 0.2 1 0.2 0.4-0.1 0.9-0.3 0.4-0.2 0.7-0.5 0.3-0.4 0.5-0.8 0.1-0.5 0.1-1z"/>
			<path id="Layer" fill-rule="evenodd" class="s0" d="m116.8 17q0 0.4 0 0.8 0 0.4 0 0.8 0 0.4 0 0.8 0 0.4-0.1 0.8-0.1 0.8-0.5 1.5-0.4 0.8-1 1.3-0.6 0.6-1.4 0.8-0.8 0.3-1.6 0.3-0.9 0-1.7-0.2-0.8-0.3-1.5-0.9-0.6-0.5-1-1.3-0.4-0.8-0.5-1.6 0-0.8-0.1-1.6 0-0.8 0-1.6 0-0.8 0-1.6 0.1-0.8 0.1-1.5 0.1-0.9 0.5-1.7 0.4-0.7 1.1-1.3 0.6-0.5 1.4-0.8 0.8-0.3 1.7-0.3 0.8 0 1.6 0.3 0.8 0.3 1.4 0.8 0.6 0.6 1 1.3 0.4 0.8 0.5 1.6 0.1 0.4 0.1 0.8 0 0.4 0 0.9 0 0.4 0 0.8 0 0.4 0 0.8zm-2.5 0c0-0.9 0.1-1.8 0-2.6q0-0.5-0.1-0.9-0.2-0.4-0.5-0.7-0.3-0.3-0.7-0.4-0.4-0.2-0.8-0.2-0.2 0-0.4 0-0.3 0.1-0.5 0.1-0.2 0.1-0.3 0.2-0.2 0.1-0.4 0.3-0.1 0.1-0.3 0.3-0.1 0.2-0.2 0.4-0.1 0.1-0.1 0.4-0.1 0.2-0.1 0.4-0.1 2.6 0 5.3 0 0.2 0.1 0.4 0 0.2 0.1 0.4 0.1 0.2 0.3 0.4 0.1 0.1 0.2 0.3 0.2 0.1 0.4 0.2 0.2 0.1 0.4 0.2 0.2 0.1 0.4 0.1 0.2 0 0.4 0 0.4 0 0.8-0.2 0.4-0.1 0.7-0.4 0.3-0.3 0.5-0.7 0.1-0.4 0.1-0.9c0.1-0.8 0-1.6 0-2.4z"/>
			<path id="Layer" class="s0" d="m147.5 18.2v4.3c0 0.9-0.4 1.5-1.4 1.4-0.8 0-1.1-0.6-1.1-1.4 0-2.6 0-5.2 0-7.8 0-1.9-1.7-3.2-3.2-2.2q-0.2 0.2-0.4 0.4-0.3 0.2-0.4 0.5-0.2 0.3-0.3 0.6 0 0.3-0.1 0.6c-0.1 2.5 0 5 0 7.5 0 0.9-0.1 1.8-1.3 1.8-1.2 0-1.3-0.9-1.3-1.8v-7.3q0-1 0.3-1.9 0.3-1 1-1.7 0.7-0.7 1.6-1.1 0.9-0.4 1.9-0.4 1 0 1.9 0.4 0.8 0.4 1.5 1.1 0.7 0.7 1 1.7 0.3 0.9 0.2 1.8 0.1 1.8 0.1 3.5z"/>
			<path id="Layer" class="s0" d="m85.2 16.9c0-0.9 0-1.8 0-2.7q0-0.7 0.3-1.4 0.2-0.7 0.7-1.3 0.4-0.5 1-0.9 0.6-0.5 1.3-0.7 0.7-0.2 1.4-0.2 0.7 0 1.5 0.3 0.7 0.2 1.3 0.6 0.6 0.4 1 1c0.5 0.7 0.8 1.5 0 2.1-0.8 0.6-1.4 0.2-2-0.5q-0.1-0.3-0.4-0.6-0.3-0.2-0.7-0.3-0.3-0.1-0.7-0.1-0.3 0-0.7 0.1-0.3 0.1-0.6 0.3-0.3 0.3-0.5 0.6-0.2 0.3-0.3 0.6-0.1 0.4-0.1 0.7v4.8q0 0.4 0.1 0.7 0.1 0.4 0.3 0.7 0.2 0.3 0.5 0.5 0.3 0.2 0.6 0.3 0.4 0.1 0.7 0.2 0.4 0 0.8-0.2 0.3-0.1 0.6-0.3 0.3-0.3 0.5-0.6 0.1-0.3 0.3-0.5 0.2-0.2 0.5-0.2 0.3-0.1 0.6 0 0.3 0 0.5 0.2c0.7 0.5 0.6 1.2 0.1 1.9q-0.4 0.7-1 1.1-0.6 0.5-1.3 0.7-0.7 0.3-1.5 0.3-0.7 0-1.4-0.2-0.7-0.1-1.3-0.5-0.6-0.4-1-1-0.5-0.5-0.8-1.2-0.2-0.6-0.3-1.3c0-1 0-2 0-3z"/>
			<path id="Layer" class="s0" d="m100 9.9q0.4-0.1 0.7-0.1 0.4 0 0.7 0 0.3 0 0.7 0.1 0.3 0 0.7 0c0.5 0.1 0.8 0.7 1.3 1.1-0.4 0.4-0.8 1.1-1.3 1.2q-0.3 0.1-0.7 0.1-0.3 0-0.6 0-0.4 0-0.7 0-0.4 0-0.7 0c0 2.6-0.1 5.1 0 7.6q0.1 0.4 0.3 0.7 0.2 0.4 0.5 0.6 0.3 0.3 0.7 0.4 0.4 0.1 0.8 0c0.9 0 1.7 0.2 1.6 1.4 0 1-0.8 1.1-1.7 1.1q-0.9 0-1.8-0.3-0.8-0.3-1.5-0.9-0.7-0.7-1.1-1.5-0.3-0.9-0.3-1.8c-0.1-4.4 0-8.7 0-13.1 0-0.8 0.2-1.5 1.2-1.5 0.9 0 1.3 0.6 1.3 1.5-0.1 1-0.1 2.1-0.1 3.4z"/>
			<path id="Layer" class="s0" d="m64.7 9.9q0.4-0.1 0.7-0.1 0.3 0 0.6 0 0.3 0 0.7 0.1 0.3 0 0.6 0 0.2 0.1 0.4 0.2 0.2 0.1 0.4 0.2 0.1 0.2 0.2 0.3 0.2 0.2 0.3 0.4c0.1 0.8-0.5 1.3-1.3 1.3-0.9 0-1.7 0-2.8 0v5.2q0 2.6 0 5.2c0 0.8-0.3 1.4-1.1 1.4-0.9 0-1.3-0.5-1.3-1.3 0-4.6-0.1-9.1 0-13.6q0.1-0.9 0.5-1.7 0.4-0.8 1-1.3 0.7-0.6 1.5-0.9 0.8-0.3 1.7-0.3c0.9 0 1.8 0.1 1.8 1.2 0 1.1-0.8 1.4-1.7 1.3q-0.4 0-0.8 0.1-0.5 0.1-0.8 0.4-0.3 0.3-0.5 0.7-0.2 0.4-0.2 0.8 0 0.1 0 0.1 0.1 0.1 0.1 0.1 0 0 0 0.1 0 0 0 0.1z"/>
			<path id="Layer" class="s0" d="m122.7 18.9v3.7c0 0.9-0.4 1.4-1.3 1.4-0.8 0-1.2-0.6-1.2-1.3 0-2.8-0.1-5.6 0.1-8.4 0-0.7 0.3-1.5 0.7-2.2 0.5-0.7 1-1.2 1.7-1.6 0.7-0.4 1.5-0.7 2.3-0.7 0.8-0.1 1.6 0.1 2.3 0.4 0.7 0.3 1.2 0.7 0.9 1.6-0.2 0.8-0.9 0.9-1.6 0.7-2.8-0.5-3.9 0.4-3.9 3.2z"/>
			<path id="Layer" class="s0" d="m131.6 16.8v-5.3c0-0.9 0.2-1.6 1.3-1.6 1 0 1.2 0.7 1.2 1.6q0.1 5.4 0 10.9c0 0.8-0.2 1.6-1.2 1.6-1.1 0-1.3-0.7-1.3-1.6q0-2.8 0-5.6z"/>
			<path id="Layer" class="s0" d="m134.3 6.4q0 0.3-0.1 0.6-0.1 0.3-0.3 0.5-0.2 0.2-0.5 0.3-0.2 0.1-0.5 0.1-0.2 0-0.3 0-0.2 0-0.3-0.1-0.2 0-0.3-0.1-0.1-0.1-0.2-0.2-0.1-0.1-0.2-0.2-0.1-0.2-0.1-0.3-0.1-0.1-0.1-0.3 0-0.1 0-0.3 0-0.1 0-0.3 0-0.1 0.1-0.2 0-0.2 0.1-0.3 0.1-0.1 0.2-0.2 0.1-0.1 0.2-0.2 0.1-0.1 0.2-0.1 0.2-0.1 0.3-0.1 0.1 0 0.3 0 0.3 0 0.6 0.1 0.2 0.1 0.5 0.3 0.2 0.2 0.3 0.4 0.1 0.3 0.1 0.6z"/>
		</g>
		<path id="Layer" class="s1" d="m15.3 0c4.3 2.4 8.6 4.9 13 7.3q0.3 0.2 0.7 0.4 0.3 0.3 0.5 0.6 0.2 0.4 0.3 0.8 0.1 0.3 0 0.7 0 0.4 0 0.8 0 0.3 0 0.7 0 0.4 0 0.7 0 0.4 0 0.8 0.1 0.4 0 0.7-0.1 0.4-0.3 0.8-0.2 0.3-0.5 0.5-0.3 0.3-0.7 0.4c-4 2-7.9 4.1-11.9 6.1q-0.8 0.4-1.6 0.4-0.8 0-1.5-0.4-0.8-0.4-1.2-1.1-0.4-0.8-0.4-1.6c0-2.5 0-2.4 2.6-2q0.2 0.1 0.4 0.1 0.3 0 0.5 0 0.2 0 0.4-0.1 0.2-0.1 0.4-0.2 3.7-1.8 7.3-3.8c1.6-0.9 1.6-2.2 0.1-3.1-2.5-1.4-5-2.7-7.5-4.2q-0.2-0.1-0.5-0.2-0.3-0.1-0.5-0.1-0.3 0-0.6 0.1-0.3 0.1-0.5 0.2-4.1 2.3-8.2 4.4-0.3 0.2-0.6 0.4-0.3 0.2-0.4 0.5-0.2 0.3-0.3 0.6-0.1 0.4-0.1 0.7v8.4q0 0.4 0.1 0.7 0.1 0.3 0.2 0.6 0.2 0.3 0.5 0.5 0.2 0.3 0.6 0.4 4.1 2.1 8.2 4.2 0.3 0.2 0.6 0.3 0.3 0.1 0.7 0 0.3 0 0.6-0.1 0.3-0.1 0.5-0.2 5.7-3.1 11.4-6c1.7-0.9 2.1-0.6 2.2 1.1 0.2 1.9-0.4 3-2.3 3.9-3.9 1.8-7.6 3.9-11.4 6q-0.3 0.1-0.6 0.2-0.3 0.1-0.6 0.1-0.3 0-0.6-0.1-0.4-0.1-0.6-0.3-6.1-3.4-12.3-6.7-0.3-0.1-0.6-0.4-0.3-0.2-0.5-0.5-0.1-0.3-0.2-0.6-0.1-0.4-0.1-0.7 0.1-6.8 0-13.6 0-0.3 0.1-0.7 0.1-0.3 0.3-0.7 0.2-0.3 0.4-0.5 0.3-0.2 0.7-0.4c4.3-2.2 8.5-4.5 12.8-6.8z"/>
	</g>
</svg>