<svg xmlns="http://www.w3.org/2000/svg" width="439" height="110" viewBox="0 0 439 110"><defs><style>.a{opacity:0.66;}.b,.c,.d,.e,.f,.g,.h,.i,.j{fill:#5976f0;}.b{opacity:0.09;}.c{opacity:0.06;}.d{opacity:0.08;}.e{opacity:0.05;}.f{opacity:0.03;}.g{opacity:0.02;}.h{opacity:0.07;}.i{opacity:0.01;}.j{opacity:0.04;}</style></defs><g class="a" transform="translate(0 -0.5)"><path class="b" d="M4,0H24a4,4,0,0,1,4,4V78a0,0,0,0,1,0,0H12A12,12,0,0,1,0,66V4A4,4,0,0,1,4,0Z" transform="translate(0 32.5)"/><path class="b" d="M4,0H25a4,4,0,0,1,4,4V104a0,0,0,0,1,0,0H0a0,0,0,0,1,0,0V4A4,4,0,0,1,4,0Z" transform="translate(75 6.5)"/><path class="b" d="M4,0H25a4,4,0,0,1,4,4V59a0,0,0,0,1,0,0H0a0,0,0,0,1,0,0V4A4,4,0,0,1,4,0Z" transform="translate(36 51.5)"/><path class="c" d="M4,0H24a4,4,0,0,1,4,4V66a0,0,0,0,1,0,0H0a0,0,0,0,1,0,0V4A4,4,0,0,1,4,0Z" transform="translate(187 44.5)"/><path class="d" d="M4,0H24a4,4,0,0,1,4,4V80a0,0,0,0,1,0,0H0a0,0,0,0,1,0,0V4A4,4,0,0,1,4,0Z" transform="translate(112 30.5)"/><path class="e" d="M4,0H25a4,4,0,0,1,4,4V98a0,0,0,0,1,0,0H0a0,0,0,0,1,0,0V4A4,4,0,0,1,4,0Z" transform="translate(223 12.5)"/><path class="f" d="M4,0H24a4,4,0,0,1,4,4V86a0,0,0,0,1,0,0H0a0,0,0,0,1,0,0V4A4,4,0,0,1,4,0Z" transform="translate(299 24.5)"/><path class="f" d="M4,0H24a4,4,0,0,1,4,4V66a0,0,0,0,1,0,0H0a0,0,0,0,1,0,0V4A4,4,0,0,1,4,0Z" transform="translate(338 44.5)"/><path class="g" d="M4,0H24a4,4,0,0,1,4,4V72a0,0,0,0,1,0,0H0a0,0,0,0,1,0,0V4A4,4,0,0,1,4,0Z" transform="translate(374 38.5)"/><path class="h" d="M4,0H22a4,4,0,0,1,4,4V72a0,0,0,0,1,0,0H0a0,0,0,0,1,0,0V4A4,4,0,0,1,4,0Z" transform="translate(151 38.5)"/><path class="i" d="M4,0H23a4,4,0,0,1,4,4V97a0,0,0,0,1,0,0H0a0,0,0,0,1,0,0V4A4,4,0,0,1,4,0Z" transform="translate(412 13.5)"/><path class="j" d="M4,0H25a4,4,0,0,1,4,4V110a0,0,0,0,1,0,0H0a0,0,0,0,1,0,0V4A4,4,0,0,1,4,0Z" transform="translate(262 0.5)"/></g></svg>