<svg xmlns="http://www.w3.org/2000/svg" width="26" height="20.004" viewBox="0 0 26 20.004"><defs><style>.a,.b{fill:#c3d8d7;}.a{fill-rule:evenodd;}</style></defs><g transform="translate(0 0)"><path class="a" d="M16.67,13.13a5.515,5.515,0,0,1,2.763,4.589v4.6h3.558a1.189,1.189,0,0,0,1.186-1.186V17.719C24.176,15.134,19.943,13.6,16.67,13.13Z" transform="translate(1.824 -2.319)"/><circle class="b" cx="5" cy="5" r="5" transform="translate(4.981 0.025)"/><path class="a" d="M15.636,13.48a4.743,4.743,0,0,0,0-9.487,4.955,4.955,0,0,0-1.577.285,7.091,7.091,0,0,1,0,8.918A4.955,4.955,0,0,0,15.636,13.48Z" transform="translate(1.287 -3.993)"/><path class="a" d="M10.487,13C7.321,13,1,14.5,1,17.484v3.23a1.158,1.158,0,0,0,1.186,1.121h16.6a1.158,1.158,0,0,0,1.186-1.121v-3.23C19.974,14.5,13.653,13,10.487,13Z" transform="translate(-1 -1.831)"/></g></svg>