<svg xmlns="http://www.w3.org/2000/svg" xmlns:xlink="http://www.w3.org/1999/xlink" width="339.5" height="115.016" viewBox="0 0 339.5 115.016"><defs><style>.a{opacity:0.14;fill:url(#a);}</style><linearGradient id="a" x1="0.5" y1="-0.506" x2="0.362" y2="0.81" gradientUnits="objectBoundingBox"><stop offset="0" stop-color="#7545e0"/><stop offset="1" stop-color="#fcfcfd"/></linearGradient></defs><path class="a" d="M-2903.94-1403.125c14.145-.417,13.367-12.075,13.367-14.987V-1475.1s-6.954.615-18.915-5.248c-6.773-4.013-18.594-13.836-27.553-15.739-9.534-2.025-18.874,5.182-28.328,22.933-14.547,20.257-19.59,22.279-27.395,17.122-7.528-4.966-13.376-13.3-24.015-37.7-20.984-48.128-28.214-13.672-43.672,6.792s-34.937,4.635-43.632-2.8-26.115,35.088-43.784,32.82-28.947-20.558-45.141-25.1c-3.849-1.079-8.615,0-13.2,3.482-9.487,8.764-17.681,17.825-23.858,16.654l.358,58.769" transform="translate(3230.065 1518.134)"/></svg>