<svg xmlns="http://www.w3.org/2000/svg" xmlns:xlink="http://www.w3.org/1999/xlink" width="357.5" height="121.108" viewBox="0 0 357.5 121.108"><defs><style>.a{opacity:0.14;fill:url(#a);}</style><linearGradient id="a" x1="0.5" y1="-0.506" x2="0.362" y2="0.81" gradientUnits="objectBoundingBox"><stop offset="0" stop-color="#5976f0"/><stop offset="1" stop-color="#fcfcfd"/></linearGradient></defs><path class="a" d="M-2886.857-1397.033c14.9-.439,14.288-12.714,14.288-15.78v-60.01s-7.323.648-19.918-5.527c-7.132-4.225-19.58-14.569-29.014-16.572-10.04-2.132-19.875,5.457-29.831,24.148-15.318,21.33-20.629,23.459-28.847,18.029-7.928-5.229-14.085-14.005-25.289-39.7-22.1-50.677-29.711-14.4-45.988,7.152s-36.79,4.88-45.946-2.947-27.5,36.947-46.107,34.558-30.482-21.646-47.535-26.429c-4.053-1.136-9.071,0-13.9,3.667-9.99,9.228-18.619,18.769-25.123,17.536l.377,61.882" transform="translate(3230.065 1518.134)"/></svg>