<svg xmlns="http://www.w3.org/2000/svg" width="17.4" height="19.4" viewBox="0 0 17.4 19.4"><defs><style>.a{fill:none;stroke:#28a5a0;stroke-width:1.4px;}</style></defs><g transform="translate(0.7 0.7)"><g transform="translate(0)"><path class="a" d="M45.805,10.048a8,8,0,0,1-16,0,.475.475,0,0,1,.949,0,7.051,7.051,0,1,0,7.051-7.009h-.823l1.177,1.31a.47.47,0,0,1-.038.666.477.477,0,0,1-.67-.038L35.768,3.1a.8.8,0,0,1,0-1.075L37.451.157a.477.477,0,0,1,.67-.038.47.47,0,0,1,.038.666L36.982,2.1h.823A7.985,7.985,0,0,1,45.805,10.048Z" transform="translate(-29.805 0)"/></g></g></svg>