<svg xmlns="http://www.w3.org/2000/svg" width="26.667" height="28.001" viewBox="0 0 26.667 28.001"><defs><style>.a{fill:#28a5a0;}.b{fill:#fff;}</style></defs><g transform="translate(-60 -335)"><g transform="translate(60 335)"><path class="a" d="M28.793,11.015,21.638,3.859A2.96,2.96,0,0,0,19.549,3H5.963A2.972,2.972,0,0,0,3,5.963V28.038A2.972,2.972,0,0,0,5.963,31H26.7a2.972,2.972,0,0,0,2.963-2.963V13.119A2.972,2.972,0,0,0,28.793,11.015Z" transform="translate(-3 -3)"/></g><path class="b" d="M12.639,11.816a1.439,1.439,0,1,1,0,2.876H8.3a1.439,1.439,0,1,1,0-2.876Z" transform="translate(60.666 332.811)"/><path class="b" d="M17.232,11.863a1.439,1.439,0,1,1,0,2.876H8.282a1.439,1.439,0,1,1,0-2.876Z" transform="translate(60.661 339.494)"/></g></svg>