<svg xmlns="http://www.w3.org/2000/svg" width="22" height="22" viewBox="0 0 22 22"><defs><style>.a{fill:#494F4D;}</style></defs><path class="a" d="M21.675,14.078A8.343,8.343,0,0,0,21.755,13a8.343,8.343,0,0,0-.079-1.078l2.386-1.815a.545.545,0,0,0,.136-.7L21.936,5.6a.576.576,0,0,0-.69-.242l-2.816,1.1a8.321,8.321,0,0,0-1.911-1.078l-.43-2.915A.547.547,0,0,0,15.535,2H11.011a.547.547,0,0,0-.554.462l-.43,2.915A8.75,8.75,0,0,0,8.116,6.455L5.3,5.355a.559.559,0,0,0-.69.242L2.349,9.4a.533.533,0,0,0,.136.7l2.386,1.815A8.49,8.49,0,0,0,4.792,13a8.49,8.49,0,0,0,.079,1.078L2.485,15.893a.545.545,0,0,0-.136.7L4.611,20.4a.576.576,0,0,0,.69.242l2.816-1.1a8.321,8.321,0,0,0,1.911,1.078l.43,2.915a.547.547,0,0,0,.554.462h4.523a.547.547,0,0,0,.554-.462l.43-2.915a8.75,8.75,0,0,0,1.911-1.078l2.816,1.1a.559.559,0,0,0,.69-.242L24.2,16.6a.545.545,0,0,0-.136-.7Zm-8.4,2.772A3.851,3.851,0,1,1,17.231,13,3.909,3.909,0,0,1,13.273,16.85Z" transform="translate(-2.271 -2)"/></svg>