<svg xmlns="http://www.w3.org/2000/svg" width="14" height="13.5" viewBox="0 0 14 13.5"><defs><style>.a{fill:#ff9d00;}</style></defs><path class="a" d="M13.963,5.6a.744.744,0,0,0-.64-.514L9.282,4.714,7.685.951a.743.743,0,0,0-1.369,0l-1.6,3.763L.676,5.083a.751.751,0,0,0-.423,1.31l3.055,2.7-.9,3.992a.751.751,0,0,0,.289.773.739.739,0,0,0,.818.036L7,11.793l3.484,2.1a.74.74,0,0,0,.819-.036.751.751,0,0,0,.289-.773l-.9-3.992,3.055-2.7A.753.753,0,0,0,13.963,5.6Zm-6.9,6.156" transform="translate(0 -0.496)"/></svg>