<svg xmlns="http://www.w3.org/2000/svg" width="16" height="18" viewBox="0 0 16 18"><defs><style>.a{fill:#b6b8c5;}</style></defs><path class="a" d="M6.143,19a2.164,2.164,0,0,0,2.286,2h9.143a2.164,2.164,0,0,0,2.286-2V8.1c0-1.1-.14-1.1-1.4-1.1H7.54c-1.257,0-1.4,0-1.4,1.1ZM19.857,4H17l-.811-.71a1.242,1.242,0,0,0-.8-.29H10.611a1.242,1.242,0,0,0-.8.29L9,4H6.143A1.082,1.082,0,0,0,5,5,1.082,1.082,0,0,0,6.143,6H19.857A1.082,1.082,0,0,0,21,5,1.082,1.082,0,0,0,19.857,4Z" transform="translate(-5 -3)"/></svg>